<svg width="122" height="17" viewBox="0 0 122 17" fill="none" xmlns="http://www.w3.org/2000/svg">
<path d="M14.0834 1.72288C14.0337 5.13601 13.8183 8.53258 13.4538 11.9126C12.4928 12.0286 11.5319 11.9623 10.604 11.7469C10.6537 8.33376 10.8691 4.93719 11.2336 1.55719C12.1946 1.44121 13.1556 1.50749 14.0834 1.72288ZM0.0498047 4.58925C9.88079e-05 3.69454 0.132648 2.84954 0.414314 2.00454C1.30902 2.08739 2.20373 2.1868 3.08186 2.30278C3.24755 1.54062 3.46294 0.778466 3.71147 -0.000259715C4.63931 0.0163097 5.55059 0.215133 6.41216 0.579643C6.32931 1.32523 6.2299 2.02111 6.08079 2.70043C7.48912 2.91582 8.89745 3.16435 10.2892 3.44601C10.3389 4.34072 10.2064 5.18572 9.92471 6.03072C8.41696 5.8816 6.90922 5.71592 5.40147 5.50052C5.31863 6.097 5.21922 6.69347 5.13637 7.28994C6.64412 7.58817 8.13529 7.95268 9.6099 8.38347C9.57677 9.27817 9.39451 10.1232 9.04657 10.935C7.57196 10.7196 6.11392 10.438 4.67245 10.1066C4.45706 11.283 4.24167 12.4759 4.00971 13.6523C3.04873 13.6854 2.10431 13.5529 1.19304 13.2546C1.47471 10.5208 1.87235 7.77043 2.43569 5.0366L0.0498047 4.58925ZM6.2299 11.78C7.0749 11.4818 7.8702 11.3493 8.63235 11.3493C8.89745 12.0948 9.11284 12.8901 9.2951 13.6357C10.4383 13.3043 11.5981 13.0393 12.7911 12.8239C13.139 13.4369 13.3047 14.0831 13.3213 14.779C12.0455 15.2594 8.99686 16.1044 7.25716 16.4027C6.72696 14.8287 6.39559 13.3209 6.2299 11.78ZM19.7137 16.2536C19.5811 14.8287 19.548 13.3872 19.6308 11.9457C18.1065 11.9623 16.5822 11.9623 15.0579 11.9457C14.8756 11.0676 14.8425 10.206 14.9916 9.32788C17.7089 9.14562 20.4261 9.04621 23.1434 9.01307C23.5079 7.48876 23.9387 5.98101 24.386 4.48984C21.2214 4.1916 18.0568 3.79396 14.9253 3.28033C14.859 2.40219 14.9585 1.54062 15.2236 0.695623C19.084 0.944153 26.0263 1.77258 27.9814 2.46847C27.6169 4.63896 26.9376 7.00827 26.308 8.99651C26.6062 8.99651 26.921 9.01307 27.2358 9.01307C27.4181 9.89121 27.4512 10.7528 27.3021 11.6309C25.7446 11.7303 24.1872 11.8132 22.6463 11.8629C22.7291 13.3209 22.696 14.7955 22.5635 16.2536C21.619 16.4193 20.6581 16.4193 19.7137 16.2536ZM43.6316 3.23062C43.5157 6.92543 43.234 10.6368 42.8032 14.315C41.9085 14.4144 41.0469 14.3482 40.1854 14.1162C40.3013 10.4214 40.583 6.71003 41.0138 3.0318C41.9085 2.93239 42.7701 2.99866 43.6316 3.23062ZM28.5045 8.13494C28.7696 3.562 30.3105 0.86131 32.7626 1.01043C34.9 1.14298 36.358 3.06494 36.4077 6.9917L37.2361 7.04141C37.3521 5.48396 37.5012 3.92651 37.6835 2.36905C38.5782 2.26964 39.4398 2.33592 40.3013 2.56788C40.1688 6.71003 39.8706 10.8522 39.4066 14.9778C38.5119 15.0772 37.6504 15.0109 36.7888 14.779C36.8385 13.1221 36.9213 11.4652 37.0208 9.80837C36.7722 9.7918 36.5237 9.77523 36.2752 9.74209C35.8112 13.9174 34.4195 15.7896 32.0667 15.7896C29.4986 15.7896 28.2394 12.9067 28.5045 8.13494ZM31.3543 8.31719C31.2217 11.5646 31.5365 12.9564 32.1993 12.9564C33.0443 12.9564 33.3259 11.6475 33.5248 8.3669C33.7402 5.33484 33.4088 3.8768 32.7129 3.84366C31.9342 3.81052 31.5034 5.18572 31.3543 8.31719ZM55.2906 2.56788C55.1747 6.71003 54.893 10.8522 54.4622 14.9778C53.5012 15.0772 52.5402 15.0109 51.6124 14.779C51.6621 13.0558 51.745 11.3327 51.8444 9.60954C51.281 9.62611 50.7343 9.64268 50.1709 9.60954C49.7567 11.5812 49.2928 13.5363 48.8123 15.4748C47.8513 15.4417 46.9235 15.2429 46.0288 14.8784C46.6252 11.4818 47.3377 8.05209 48.1496 4.68866C46.7081 4.52298 45.3329 4.27445 43.9246 3.94307C43.8914 3.0318 44.0074 2.13709 44.3056 1.29209C46.3933 1.44121 49.7733 1.90513 51.5296 2.61758C51.281 4.04249 51.0159 5.45082 50.7343 6.87572C51.1651 6.85915 51.5958 6.85915 52.0266 6.85915C52.1426 5.36798 52.2917 3.86023 52.4408 2.36905C53.4018 2.26964 54.3628 2.33592 55.2906 2.56788ZM55.2575 14.2819C55.3735 10.5208 55.6551 6.75974 56.0859 3.0318C57.0469 2.93239 58.0079 2.99866 58.9357 3.23062C58.8198 6.9917 58.5381 10.7528 58.1073 14.4807C57.1463 14.5801 56.1853 14.5139 55.2575 14.2819ZM77.4772 1.72288C77.4275 5.13601 77.2121 8.53258 76.8476 11.9126C75.8866 12.0286 74.9256 11.9623 73.9978 11.7469C74.0475 8.33376 74.2629 4.93719 74.6274 1.55719C75.5884 1.44121 76.5494 1.50749 77.4772 1.72288ZM63.2613 7.63788C63.6093 3.76082 65.73 0.795035 68.5964 0.927583C71.3965 1.06013 73.4676 4.09219 73.0865 8.00239C72.954 9.29474 72.6557 10.4545 72.1918 11.4321C72.6226 11.3493 73.0534 11.3161 73.5007 11.3327C73.7161 12.0948 73.8818 12.857 73.9978 13.6192C75.141 13.2878 76.2677 13.0393 77.4441 12.8404C77.7754 13.5032 77.9411 14.1991 77.9411 14.9612C76.4499 15.5411 73.5007 16.3364 71.8604 16.3364C71.5456 15.1766 71.3468 14.0499 71.2474 12.8901C70.3361 13.934 69.1266 14.547 67.6851 14.547C64.6862 14.547 62.9465 11.2167 63.2613 7.63788ZM66.3265 7.82013C66.1443 10.1232 66.9064 11.5481 67.8177 11.5481C68.9278 11.5481 69.7728 10.1232 70.0213 7.787C70.2864 5.46739 69.3254 3.95964 68.5467 3.92651C67.536 3.84366 66.5253 5.46739 66.3265 7.82013ZM91.0279 2.89925C90.9782 4.32415 90.9285 5.73249 90.8456 7.14082C91.3924 7.17396 91.9391 7.24023 92.4859 7.35621C92.5853 8.18464 92.5522 9.04621 92.3534 9.87464C91.79 9.92435 91.2101 9.94092 90.6468 9.89121C90.5308 11.4818 90.3817 13.0724 90.1994 14.6464C89.2385 14.7458 88.2775 14.6795 87.3496 14.4476C87.4656 10.5208 87.7473 6.59405 88.1781 2.70043C89.139 2.60101 90.1 2.66729 91.0279 2.89925ZM78.3529 15.3092C78.6511 10.5374 79.115 5.76562 79.7281 1.027C80.689 0.944153 81.65 1.04356 82.5779 1.29209C82.4122 3.82709 82.2134 6.36209 81.9648 8.89709C83.7377 9.44386 85.4774 10.0403 87.2005 10.7362C87.0845 11.6143 86.8029 12.4428 86.3721 13.2215C84.7815 12.8073 83.2075 12.3268 81.6666 11.7966C81.5175 13.0558 81.3684 14.315 81.2027 15.5743C80.2417 15.6571 79.2807 15.5577 78.3529 15.3092ZM108.062 3.23062C107.946 6.92543 107.664 10.6368 107.233 14.315C106.338 14.4144 105.477 14.3482 104.615 14.1162C104.665 12.741 104.731 11.3493 104.814 9.97405L104.151 9.92435C104.019 11.6143 103.853 13.3043 103.671 14.9778C102.776 15.0772 101.915 15.0109 101.053 14.779C101.186 10.6368 101.484 6.49464 101.948 2.36905C102.842 2.26964 103.704 2.33592 104.566 2.56788C104.516 4.10876 104.45 5.63307 104.35 7.17396C104.566 7.17396 104.798 7.19052 105.013 7.20709C105.146 5.81533 105.278 4.42356 105.444 3.0318C106.338 2.93239 107.2 2.99866 108.062 3.23062ZM92.5699 5.43425C92.4871 4.53954 92.5865 3.67798 92.835 2.81641C93.7629 2.86611 94.7073 2.91582 95.6351 2.99866C95.7345 2.21994 95.8505 1.44121 96.0328 0.629349C96.944 0.563074 97.8885 0.662486 98.7666 0.927583C98.7666 1.75601 98.7169 2.53474 98.634 3.2969C99.5619 3.39631 100.49 3.52886 101.418 3.67798C101.5 4.57268 101.401 5.43425 101.152 6.29582C100.887 6.27925 100.622 6.26268 100.357 6.26268C100.589 7.07454 100.655 8.1018 100.556 9.29474C100.241 12.8736 98.8494 14.6961 96.331 14.6961C93.8291 14.6961 92.5534 12.3102 92.8516 8.91366C92.9676 7.60474 93.2492 6.47807 93.6966 5.59994C93.3155 5.55023 92.951 5.50052 92.5699 5.43425ZM95.6186 9.06278C95.486 10.9682 95.8174 12.128 96.4636 12.128C97.3086 12.128 97.5902 11.0676 97.789 9.19533C98.0044 7.2568 97.6565 6.06386 96.9772 6.03072C96.1985 6.01415 95.7511 7.10768 95.6186 9.06278ZM109.266 12.8073C109.879 12.7742 110.508 12.7244 111.121 12.6913C111.105 11.7303 111.138 10.8025 111.221 9.87464C109.846 8.93023 109.017 7.45562 109.034 5.74905C109.067 2.83298 111.768 0.596211 115.363 0.596211C118.925 0.596211 121.444 2.88268 121.394 5.86503C121.361 7.37278 120.632 8.6817 119.439 9.60954C119.489 10.5705 119.455 11.4984 119.389 12.4759C120.102 12.4759 120.798 12.4759 121.51 12.4925C121.692 13.3706 121.725 14.2322 121.576 15.1103C117.5 15.3754 113.408 15.4914 109.332 15.4251C109.15 14.547 109.117 13.6854 109.266 12.8073ZM112.265 5.8319C112.248 6.84258 113.226 7.96925 115.098 7.96925C117.02 7.96925 118.13 6.80945 118.163 5.74905C118.196 4.73837 117.186 3.6117 115.33 3.6117C113.408 3.6117 112.281 4.78807 112.265 5.8319ZM114.087 12.5588C114.866 12.5422 115.645 12.5091 116.423 12.5091C116.423 11.9457 116.423 11.4155 116.457 10.8688C116.009 10.9516 115.562 10.9847 115.081 10.9847C114.767 10.9847 114.452 10.9682 114.154 10.935C114.154 11.4652 114.12 12.012 114.087 12.5588Z" fill="#9956DF"/>
</svg>
