<svg width="148" height="20" viewBox="0 0 148 20" fill="none" xmlns="http://www.w3.org/2000/svg">
<path d="M16.3599 2.82035C16.2999 4.54035 16.2399 6.24035 16.1399 7.96035C16.7399 8.00035 17.3199 8.08035 17.9199 8.20035C18.0399 9.20035 17.9999 10.2404 17.7599 11.2404C17.1399 11.3004 16.5199 11.3204 15.8999 11.2804C15.7599 13.2004 15.5799 15.1004 15.3599 17.0004C14.1999 17.1204 13.0399 17.0404 11.9199 16.7604C12.0599 12.0204 12.3999 7.28035 12.9199 2.58035C14.0799 2.46035 15.2399 2.54035 16.3599 2.82035ZM-0.000136714 2.04035C1.11986 1.72035 2.27986 1.60035 3.43986 1.68035C4.03986 5.90035 4.51986 10.1404 4.87986 14.4004C6.81986 13.8004 8.75986 13.2804 10.7399 12.8404C11.2199 13.8004 11.5199 14.8004 11.6199 15.8804C8.59986 16.9804 4.91986 18.0804 1.89986 18.6404C0.859863 13.0804 0.319863 6.46035 -0.000136714 2.04035ZM18.9253 11.5804C23.6453 11.1204 28.4053 10.8604 33.1653 10.8004C33.4253 11.8404 33.4653 12.8804 33.3253 13.9604C30.7453 14.2204 28.1653 14.4004 25.5653 14.5404C25.6853 15.1004 25.7653 15.6604 25.8453 16.2204C27.6053 15.9804 29.3453 15.8404 31.1253 15.8004C31.4253 16.6404 31.5053 17.4404 31.3453 18.3204C29.6253 18.6804 24.6453 19.1604 22.9453 19.1404C22.5453 17.7204 22.2453 16.2204 22.0253 14.6804L19.0853 14.7404C18.8253 13.7004 18.7853 12.6604 18.9253 11.5804ZM18.0653 0.72035C19.1853 0.400351 20.3453 0.280351 21.5053 0.360351C21.8453 2.42035 22.1253 4.50035 22.3053 6.60035C25.8453 6.12035 29.4053 5.80035 32.9653 5.60035C33.2653 6.64035 33.3853 7.68035 33.2853 8.76035C29.0453 9.40035 22.1253 10.0604 19.0653 10.0204C18.5453 6.96035 18.2053 3.84035 18.0653 0.72035ZM53.3124 2.82035C53.2524 4.54035 53.1924 6.24035 53.0924 7.94035C53.7524 7.98035 54.4124 8.06035 55.0724 8.20035C55.1924 9.20035 55.1524 10.2404 54.9124 11.2404C54.2324 11.3004 53.5324 11.3204 52.8524 11.2604C52.7124 13.1804 52.5324 15.1004 52.3124 17.0004C51.1524 17.1204 49.9924 17.0404 48.8724 16.7604C49.0124 12.0204 49.3524 7.28035 49.8724 2.58035C51.0324 2.46035 52.1924 2.54035 53.3124 2.82035ZM38.0124 17.8004C38.3724 12.0404 38.9324 6.28035 39.6724 0.560351C40.8324 0.460351 41.9924 0.580351 43.1124 0.880351C42.9124 3.94035 42.6724 7.00035 42.3724 10.0604C44.5124 10.7204 46.6124 11.4404 48.6924 12.2804C48.5524 13.3404 48.2124 14.3404 47.6924 15.2804C45.7724 14.7804 43.8724 14.2004 42.0124 13.5604C41.8324 15.0804 41.6524 16.6004 41.4524 18.1204C40.2924 18.2204 39.1324 18.1004 38.0124 17.8004ZM61.8538 8.24035C61.9738 10.2204 61.9338 12.2204 61.7738 14.2004C63.5138 14.1004 65.2338 14.0204 66.9738 14.0004C67.2338 15.0404 67.3138 16.0804 67.1738 17.1604C63.3938 17.6204 59.5738 17.8804 55.7538 17.9404C55.4938 16.9004 55.4138 15.8604 55.5538 14.7804C56.4138 14.6804 57.2938 14.5804 58.1738 14.5004C58.0938 12.3804 58.1938 10.2604 58.4138 8.16035C59.5538 7.98035 60.7138 8.02035 61.8538 8.24035ZM55.1938 3.48035C55.1338 2.40035 55.2738 1.38035 55.5938 0.360351C58.6138 0.580351 65.3138 1.32035 68.0538 2.32035C67.4538 5.98035 66.6538 9.60035 65.6738 13.1404C64.5138 13.1004 63.3938 12.8604 62.3138 12.4204C62.7338 9.84035 63.2538 7.28035 63.8738 4.74035C60.9538 4.44035 58.0538 4.02035 55.1938 3.48035ZM67.7338 16.7604C67.8538 12.0404 68.1738 7.28035 68.6938 2.58035C69.8538 2.46035 71.0138 2.54035 72.1338 2.82035C72.0938 4.52035 72.0138 6.24035 71.9338 7.96035C72.5338 7.98035 73.1338 8.06035 73.7338 8.20035C73.8338 9.20035 73.7938 10.2404 73.5538 11.2404C72.9338 11.3004 72.3138 11.3204 71.7138 11.2804C71.5538 13.1804 71.3938 15.1004 71.1738 17.0004C70.0138 17.1204 68.8538 17.0404 67.7338 16.7604ZM90.2466 2.82035C90.1866 4.54035 90.1266 6.24035 90.0266 7.96035C90.6266 8.00035 91.2066 8.08035 91.8066 8.20035C91.9266 9.20035 91.8866 10.2404 91.6466 11.2404C91.0266 11.3004 90.4066 11.3204 89.7866 11.2804C89.6466 13.2004 89.4666 15.1004 89.2466 17.0004C88.0866 17.1204 86.9266 17.0404 85.8066 16.7604C85.9466 12.0204 86.2866 7.28035 86.8066 2.58035C87.9666 2.46035 89.1266 2.54035 90.2466 2.82035ZM73.6066 3.84035C73.5866 2.76035 73.7666 1.74035 74.1266 0.72035C76.7066 1.00035 83.1866 1.96035 85.4266 2.90035C84.5066 7.90035 83.2666 13.3204 81.9266 18.2204C80.7666 18.1604 79.6266 17.9004 78.5666 17.4604C79.3266 13.5004 80.2266 9.28035 81.2466 5.26035C78.6866 4.90035 76.1266 4.44035 73.6066 3.84035ZM96.556 8.38035C98.356 8.20035 100.156 8.06035 101.956 7.94035C101.976 7.48035 102.016 7.00035 102.096 6.52035C103.196 6.32035 104.336 6.32035 105.436 6.52035C105.496 6.94035 105.536 7.34035 105.556 7.74035C107.316 7.68035 109.056 7.62035 110.796 7.60035C111.056 8.56035 111.096 9.56035 110.956 10.5604C109.236 10.7204 107.496 10.8604 105.756 10.9804L105.876 11.6804C106.956 11.6204 108.036 11.5604 109.116 11.5204C109.456 12.3204 109.536 13.1004 109.336 13.9604C108.976 14.0004 108.636 14.0604 108.276 14.1004C108.516 14.4804 108.656 14.9204 108.696 15.3804C108.836 17.3204 107.116 18.9604 104.656 19.1404C102.216 19.3004 100.256 17.9204 100.116 15.9804C100.096 15.5804 100.156 15.2004 100.276 14.8404L98.816 14.9004C98.476 14.1004 98.396 13.3204 98.596 12.4604C99.836 12.2804 101.056 12.1404 102.296 12.0004C102.296 11.7204 102.296 11.4604 102.316 11.1804C100.436 11.2604 98.576 11.3204 96.716 11.3404C96.456 10.3804 96.416 9.38035 96.556 8.38035ZM96.236 3.04035C96.056 2.06035 96.096 1.06035 96.316 0.0803514C101.276 0.000351191 106.276 0.100351 111.236 0.420351C111.416 1.40035 111.376 2.40035 111.156 3.38035C109.796 3.40035 108.416 3.42035 107.036 3.40035C108.416 3.72035 109.796 4.06035 111.156 4.44035C111.156 5.44035 110.956 6.42035 110.556 7.32035C107.656 6.90035 104.796 6.32035 101.976 5.56035C101.276 6.38035 100.556 7.20035 99.796 7.98035C98.856 7.46035 98.056 6.80035 97.356 5.98035C98.016 5.04035 98.696 4.12035 99.416 3.22035L96.236 3.04035ZM103.236 15.5604C103.236 16.0404 103.856 16.3404 104.456 16.3004C105.076 16.2604 105.596 15.8604 105.556 15.4004C105.556 14.9604 105.036 14.6404 104.456 14.6404C104.376 14.6404 104.276 14.6604 104.196 14.6604C103.656 14.7404 103.196 15.1204 103.236 15.5604ZM129.418 2.82035C129.358 4.54035 129.298 6.24035 129.198 7.94035C129.858 7.98035 130.518 8.06035 131.178 8.20035C131.298 9.20035 131.258 10.2404 131.018 11.2404C130.338 11.3004 129.638 11.3204 128.958 11.2604C128.818 13.1804 128.638 15.1004 128.418 17.0004C127.258 17.1204 126.098 17.0404 124.978 16.7604C125.118 12.0204 125.458 7.28035 125.978 2.58035C127.138 2.46035 128.298 2.54035 129.418 2.82035ZM112.178 9.24035C112.578 3.82035 115.298 0.380351 118.918 0.540351C122.498 0.700351 125.078 4.22035 124.638 9.68035C124.198 15.2604 121.638 18.3804 117.818 18.3804C114.018 18.3804 111.818 14.5004 112.178 9.24035ZM115.878 9.46035C115.678 13.1604 116.718 14.7604 117.978 14.7604C119.458 14.7604 120.658 13.1604 120.938 9.42035C121.238 5.88035 120.058 4.20035 118.858 4.16035C117.498 4.12035 116.098 5.90035 115.878 9.46035ZM132.007 14.7804C132.747 14.7404 133.507 14.6804 134.247 14.6404C134.227 13.4804 134.267 12.3604 134.367 11.2404C132.707 10.1004 131.707 8.32035 131.727 6.26035C131.767 2.74035 135.027 0.0403507 139.367 0.0403507C143.667 0.0403507 146.707 2.80035 146.647 6.40035C146.607 8.22035 145.727 9.80035 144.287 10.9204C144.347 12.0804 144.307 13.2004 144.227 14.3804C145.087 14.3804 145.927 14.3804 146.787 14.4004C147.007 15.4604 147.047 16.5004 146.867 17.5604C141.947 17.8804 137.007 18.0204 132.087 17.9404C131.867 16.8804 131.827 15.8404 132.007 14.7804ZM135.627 6.36035C135.607 7.58035 136.787 8.94035 139.047 8.94035C141.367 8.94035 142.707 7.54035 142.747 6.26035C142.787 5.04035 141.567 3.68035 139.327 3.68035C137.007 3.68035 135.647 5.10035 135.627 6.36035ZM137.827 14.4804C138.767 14.4604 139.707 14.4204 140.647 14.4204C140.647 13.7404 140.647 13.1004 140.687 12.4404C140.147 12.5404 139.607 12.5804 139.027 12.5804C138.647 12.5804 138.267 12.5604 137.907 12.5204C137.907 13.1604 137.867 13.8204 137.827 14.4804Z" fill="#FF8B8B"/>
</svg>
