<svg width="65" height="65" viewBox="0 0 65 65" fill="none" xmlns="http://www.w3.org/2000/svg">
<rect x="11.8833" y="1.73462" width="51.4684" height="51.4684" rx="9.57501" transform="rotate(11.3722 11.8833 1.73462)" fill="white" stroke="#FDAD51" stroke-width="2.94616"/>
<path d="M46.4508 34.9361C44.8748 42.7718 37.2451 47.8463 29.4094 46.2703C21.5737 44.6943 16.4992 37.0646 18.0752 29.2289C19.6512 21.3931 27.2809 16.3186 35.1166 17.8946C42.9523 19.4706 48.0269 27.1003 46.4508 34.9361ZM22.4966 30.1181C21.4117 35.512 24.9048 40.764 30.2987 41.8489C35.6925 42.9338 40.9446 39.4406 42.0294 34.0468C43.1143 28.6529 39.6212 23.4009 34.2273 22.316C28.8335 21.2312 23.5815 24.7243 22.4966 30.1181Z" fill="#FDAD51"/>
</svg>
