<svg width="95" height="61" viewBox="0 0 95 61" fill="none" xmlns="http://www.w3.org/2000/svg">
<rect x="11.7288" y="31.0132" width="54.873" height="54.873" rx="10.2084" transform="rotate(-20.5748 11.7288 31.0132)" fill="white" stroke="#3BAABB" stroke-width="3.14104"/>
<path d="M61.7309 41.5497C64.7256 49.5275 60.686 58.4225 52.7082 61.4171C44.7304 64.4118 35.8354 60.3721 32.8408 52.3943C29.8461 44.4165 33.8857 35.5216 41.8635 32.5269C49.8413 29.5323 58.7363 33.5719 61.7309 41.5497ZM37.3423 50.7046C39.4038 56.1962 45.5267 58.977 51.0184 56.9155C56.51 54.8541 59.2908 48.7311 57.2294 43.2395C55.1679 37.7478 49.045 34.9671 43.5533 37.0285C38.0617 39.0899 35.2809 45.2129 37.3423 50.7046Z" fill="#3BAABB"/>
<rect x="53.1907" y="52.5645" width="3.33864" height="11.1126" transform="rotate(-57.8127 53.1907 52.5645)" fill="#3BAABB" stroke="#3BAABB" stroke-width="0.83466"/>
</svg>
