<svg width="55" height="35" viewBox="0 0 55 35" fill="none" xmlns="http://www.w3.org/2000/svg">
<rect width="55" height="35" rx="17.5" fill="#ED7C7C"/>
<path fill-rule="evenodd" clip-rule="evenodd" d="M36.314 14.038C34.907 13.073 32.942 12.078 30.927 12.002C30.121 11.972 29.445 12.307 28.76 12.647C28.5687 12.7437 28.375 12.837 28.179 12.927C28.024 12.996 27.976 12.996 27.821 12.927C27.6258 12.8376 27.4324 12.7442 27.241 12.647C26.556 12.307 25.879 11.971 25.073 12.002C23.058 12.078 21.093 13.073 19.686 14.038C18.763 14.67 17 15.684 17 17C17 18.451 18.937 20.116 19.914 20.948C21.73 22.496 24.451 24 28 24C31.549 24 34.27 22.496 36.086 20.95C37.102 20.083 39 18.512 39 17C39 15.723 37.206 14.65 36.314 14.038ZM28 19C31.153 19 34.182 18.51 37 17.609C35.4891 17.2033 33.9314 16.9985 32.367 17C30.855 17 29.39 17.188 28 17.54C26.5723 17.1801 25.1054 16.9987 23.633 17C22.024 17 20.469 17.213 19 17.609C21.9099 18.5357 24.9461 19.005 28 19Z" fill="white"/>
</svg>
