<svg width="134" height="101" viewBox="0 0 134 101" fill="none" xmlns="http://www.w3.org/2000/svg">
<rect x="1.86784" y="21.834" width="118.086" height="77.6456" rx="10.5145" transform="rotate(-9.7344 1.86784 21.834)" fill="white" stroke="#75D069" stroke-width="3.23523"/>
<path d="M60.7644 39.0155C61.1391 41.7742 61.5084 44.5009 61.814 47.2387C62.8772 47.1219 63.9513 47.0689 65.0418 47.1116C65.5067 48.6731 65.7273 50.3422 65.6182 52.0021C64.5505 52.2838 63.4399 52.5071 62.3394 52.5975C62.6413 55.6969 62.8795 58.8072 63.0484 61.8966C61.2318 62.4052 59.3605 62.5949 57.4983 62.4548C56.425 54.8594 55.6707 47.2093 55.2142 39.5738C57.0308 39.0652 58.9021 38.8754 60.7644 39.0155ZM40.4683 67.0832C39.4669 57.8014 38.7843 48.465 38.3996 39.143C40.2217 38.6663 42.1039 38.5404 43.9716 38.7123C44.4897 43.6457 44.944 48.5899 45.3026 53.5506C48.895 54.0176 52.44 54.5911 55.986 55.3615C56.0527 57.0898 55.7841 58.7771 55.2122 60.418C52.0143 60.1459 48.8264 59.7409 45.6859 59.2293C45.8147 61.7019 45.9435 64.1745 46.0403 66.6525C44.2183 67.1293 42.336 67.2552 40.4683 67.0832ZM75.8646 45.3206C76.5974 48.4446 77.0807 51.6442 77.3671 54.8447C80.1139 54.2094 82.8343 53.6114 85.6029 53.1036C86.3019 54.6906 86.7139 56.3268 86.7861 58.087C80.8853 59.8542 74.8661 61.3135 68.7922 62.454C68.0932 60.867 67.6812 59.2308 67.6091 57.4706C68.9528 57.076 70.3285 56.6759 71.7096 56.3076C71.0022 52.9495 70.5818 49.5422 70.3582 46.134C72.1265 45.5352 73.9869 45.2817 75.8646 45.3206ZM63.9444 39.5532C63.5534 37.8477 63.4976 36.1832 63.7288 34.4695C68.6039 33.9943 79.4883 33.3415 84.1302 34.1865C84.1747 40.1858 83.8893 46.1761 83.2951 52.088C81.4347 52.3415 79.5834 52.2652 77.7412 51.8591C77.7052 47.6309 77.8341 43.4072 78.1278 39.188C73.3903 39.5083 68.6519 39.6319 63.9444 39.5532ZM87.5695 57.2961C86.4699 49.738 85.6781 42.0615 85.2217 34.4259C87.0383 33.9174 88.9096 33.7276 90.7718 33.8677C91.173 36.589 91.5159 39.3531 91.8588 42.1173C92.8209 41.985 93.7993 41.9485 94.7942 42.0076C95.2272 43.5746 95.4478 45.2436 95.3387 46.9036C94.3666 47.1688 93.3836 47.3703 92.4161 47.4706C92.6807 50.5436 92.9507 53.6484 93.1196 56.7378C91.303 57.2464 89.4317 57.4362 87.5695 57.2961Z" fill="#2EAB3F"/>
</svg>
