<svg width="55" height="35" viewBox="0 0 55 35" fill="none" xmlns="http://www.w3.org/2000/svg">
<rect width="55" height="35" rx="17.5" fill="#75D069"/>
<path d="M22 14.5C22 12.7761 22.6848 11.1228 23.9038 9.90381C25.1228 8.68482 26.7761 8 28.5 8C30.2239 8 31.8772 8.68482 33.0962 9.90381C34.3152 11.1228 35 12.7761 35 14.5C35 20.5 29 20.5 29 24.5C29 24.9596 28.9095 25.4148 28.7336 25.8394C28.5577 26.264 28.2999 26.6499 27.9749 26.9749C27.6499 27.2999 27.264 27.5577 26.8394 27.7336C26.4148 27.9095 25.9596 28 25.5 28C25.0404 28 24.5852 27.9095 24.1606 27.7336C23.736 27.5577 23.3501 27.2999 23.0251 26.9749C22.7001 26.6499 22.4423 26.264 22.2664 25.8394C22.0905 25.4148 22 24.9596 22 24.5" stroke="white" stroke-width="2" stroke-linecap="round" stroke-linejoin="round"/>
<path d="M31 14.5C31 13.837 30.7366 13.2011 30.2678 12.7322C29.7989 12.2634 29.163 12 28.5 12C27.837 12 27.2011 12.2634 26.7322 12.7322C26.2634 13.2011 26 13.837 26 14.5V15.5C26.5304 15.5 27.0391 15.7107 27.4142 16.0858C27.7893 16.4609 28 16.9696 28 17.5C28 18.0304 27.7893 18.5391 27.4142 18.9142C27.0391 19.2893 26.5304 19.5 26 19.5" stroke="white" stroke-width="2" stroke-linecap="round" stroke-linejoin="round"/>
</svg>
