<svg width="161" height="127" viewBox="0 0 161 127" fill="none" xmlns="http://www.w3.org/2000/svg">
<rect x="25.1361" y="2.2963" width="137.359" height="90.3181" rx="12.2306" transform="rotate(14.6481 25.1361 2.2963)" fill="white" stroke="#9956DF" stroke-width="3.76326"/>
<path d="M49.1133 55.9879C57.9248 57.3964 66.7504 59.1976 75.408 61.3438C75.4245 63.2151 75.0215 65.0546 74.2908 66.8085C70.9647 66.2892 67.6213 65.6876 64.2873 65.0495C64.1905 65.5688 64.0208 66.069 63.8876 66.5787C65.5815 66.9437 67.3022 67.3545 69.0594 67.7749C68.9191 69.7998 67.6373 75.2993 66.7527 77.7908C64.8275 77.7155 62.9152 77.2935 61.1708 76.5264C61.3078 74.8118 61.5809 73.1717 61.9632 71.5602C58.254 71.0186 54.6652 70.3139 51.0147 69.3987C50.9411 67.7457 51.268 66.1975 51.9416 64.6621C53.6735 64.8814 55.4419 65.1102 57.2007 65.3755C57.307 64.8198 57.4593 64.2373 57.602 63.6911C54.3695 62.9629 51.1733 62.2442 47.9962 61.4527C47.9796 59.5813 48.3826 57.7418 49.1133 55.9879ZM48.4642 52.6676C51.4825 47.8165 54.8459 43.1334 58.4894 38.7179C60.4601 39.6609 62.2263 40.9394 63.7249 42.498C62.8614 43.867 62.0074 45.1997 61.1075 46.5593C66.904 49.0857 72.6244 51.9033 78.1785 54.9109C77.6646 56.877 76.8152 58.6387 75.6016 60.3053C69.441 57.6837 63.3565 54.7709 57.4843 51.6412C56.2438 53.2619 55.0034 54.8825 53.6997 56.4477C51.729 55.5047 49.9628 54.2262 48.4642 52.6676ZM113.192 59.395C110.815 67.4477 108.064 75.4416 105.005 83.2771C102.982 82.9816 101.127 82.3411 99.3665 81.3365C101.744 73.2839 104.494 65.2899 107.554 57.4545C109.577 57.7499 111.432 58.3904 113.192 59.395ZM79.4194 51.6956C79.8605 49.7105 80.6371 47.9297 81.7778 46.2442C87.6062 48.351 93.303 50.8125 98.8319 53.619C98.3908 55.6041 97.6142 57.3848 96.4735 59.0704C94.2732 58.2619 92.0824 57.417 89.9376 56.5453C88.6202 60.2462 87.2932 63.9835 85.8666 67.6559C88.3073 69.0329 90.6275 70.5729 92.9999 72.3599C92.2216 74.2958 91.0793 76.1365 89.6663 77.6731C87.4329 76.5448 85.3642 75.3818 83.4064 74.0921C82.6186 76.0644 81.8308 78.0367 81.0066 79.9995C78.8568 79.5932 76.8021 78.8228 74.9155 77.7073C77.5933 69.6943 80.5087 61.6657 83.6598 53.7764C82.2432 53.095 80.8265 52.4135 79.4194 51.6956ZM89.1795 65.9935C89.4368 64.116 90.0773 62.2607 91.0534 60.6099C93.0844 61.0241 95.0315 61.6108 96.8946 62.37C97.9108 59.5239 98.9539 56.7237 100.033 53.933C102.057 54.2284 103.912 54.8689 105.672 55.8735C103.001 64.8998 99.9669 73.8308 96.5778 82.6303C94.5546 82.3348 92.6994 81.6943 90.9394 80.6898C92.1794 76.5407 93.5018 72.3743 94.851 68.2539C92.904 67.6672 91.0045 66.8984 89.1795 65.9935Z" fill="#9956DF"/>
</svg>
